<svg data-name="Capa 2" xmlns="http://www.w3.org/2000/svg" viewBox="0 0 151.74 39.39"><path d="M53.66 12.63c.34-.65 11.68-11.59 18.96-7.57 2.72 1.53 14.09 10.49 15.45 12.95L77.36 28.9c-4.17-.31-21.32-12.95-23.7-16.27Zm-2.55-2.49c-2.89-.82-2.86-2.92-7.88-3.26-3.71-.26-5.9.31-9.16 1.81-4.17 1.93-9.21 6.18-12.27 9.52-3.66 4.03-6.52 7.51-10.63 11.11C9.92 30.4.14 39.33 0 39.38c5.44.26 22.73-21.63 33.45-27.92 4.39-2.58 12.05-4.05 15.79.06-.71 1.98-19.47 18.54-21.4 22.88 5.44-.94 20.78-18.62 24.38-20.52 4.39 2.64 10.57 11.91 22.73 17.15-.51 2.07-3.23 3.69-4.28 5.61 5.75-1.02 2.81-5.98 12.1-3.15 4 1.22 11.11 1.9 15.48.77-1.11-.43-7.71-1.22-9.64-1.5-2.83-.37-5.92-1.59-8.76-2.35.68-1.28 9.3-10.06 10.66-10.6 4.39 2.64 6.38 4.88 11.59 7.11 6.26 2.64 8.14 3.23 15.9 3.12-1.05-2.35-6.04-1.47-13.75-4.96-7.54-3.43-9.21-5.36-12.05-6.66 1.05-3.69 10.01-8.84 13.49-10.37 6.35-2.78 12.5.06 17.35 4.25 4.22 3.66 8.05 7.71 12.56 11.08 2.47 1.84 4.51 3.49 7.37 4.62 1.9.74 7.14 3.23 8.76 2.27-9.58-5.36-15.65-8.7-24.09-16.53-9.24-8.56-16.3-12.98-28.2-5.24-8.48 5.5-8.08 9.3-11.54 6.35-4-3.43-7.09-6.26-10.8-9.81-4.39-4.2-7.97-6.69-14.17-3.77-5.24 2.44-9.18 7.17-11.82 8.87Z" style="fill:#211f1f;fill-rule:evenodd" data-name="Capa 1"/></svg>